<svg width="50" height="47" viewBox="0 0 50 47" fill="none" xmlns="http://www.w3.org/2000/svg">
<path d="M48.5144 17.9626L40.2727 26.2043L35.5691 21.4922L39.124 17.9626C39.4069 17.6321 39.3878 17.1398 39.0801 16.8321C38.7727 16.5248 38.2805 16.5057 37.95 16.7886L34.3871 20.3101L32.0391 17.9541L40.2727 9.71234C40.5955 9.38755 40.5955 8.86317 40.2727 8.53838C39.9479 8.21562 39.4235 8.21562 39.0988 8.53838L30.266 17.3715C30.1083 17.5276 30.0197 17.7406 30.0197 17.9626C30.0197 18.1845 30.1083 18.3971 30.266 18.5536L31.4481 19.7272L30.266 20.9097C28.8685 19.5109 26.6799 19.2882 25.0295 20.3768L24.3803 19.7272C23.6003 18.9492 22.5434 18.5122 21.4414 18.5118C20.9207 18.5118 20.404 18.6077 19.9178 18.7951L18.4943 17.3715L19.0853 16.7886C19.243 16.6321 19.3317 16.4195 19.3317 16.1976C19.3317 15.9756 19.243 15.7626 19.0853 15.6065L10.8188 7.36483C10.4924 7.04044 9.96477 7.04247 9.64079 7.36889C9.31641 7.69531 9.31844 8.22253 9.64486 8.54692L17.2955 16.1976L16.7045 16.7801L12.542 20.9011L9.60339 17.9541C9.44689 17.7963 9.23429 17.7077 9.01235 17.7077C8.7904 17.7077 8.5774 17.7963 8.4213 17.9541C8.09814 18.2788 8.09814 18.8032 8.4213 19.128L11.368 22.0751L10.1859 23.2487L9.07861 24.4726L1.42794 16.7886C1.27185 16.6309 1.05884 16.5423 0.836898 16.5423C0.614951 16.5423 0.402354 16.6309 0.245853 16.7886C-0.0769053 17.1134 -0.0769053 17.6378 0.245853 17.9626L8.48756 26.2043C8.64488 26.36 8.85747 26.447 9.07861 26.4458C9.30015 26.447 9.51274 26.36 9.67006 26.2043L10.8188 25.0303L11.9924 26.2043C10.3676 27.8299 10.3676 30.4644 11.9924 32.09L13.5578 33.6302C13.7139 33.7879 13.9269 33.8765 14.1488 33.8765C14.3708 33.8765 14.5834 33.7879 14.7399 33.6302C15.0626 33.3054 15.0626 32.781 14.7399 32.4562L13.1997 30.9164C12.7293 30.4477 12.4651 29.8111 12.4651 29.1473C12.4651 28.4831 12.7293 27.8465 13.1997 27.3783L13.7826 26.7953L19.6764 20.9011C20.6658 19.9625 22.217 19.9625 23.2064 20.9011L28.501 26.1958C28.7839 26.5262 28.7648 27.0185 28.4575 27.3262C28.1498 27.6335 27.6575 27.6526 27.3274 27.3697L23.4893 23.532C23.1609 23.2056 22.6296 23.2072 22.3031 23.5361C21.9767 23.8649 21.9784 24.3958 22.3072 24.7222L26.1449 28.5603C26.8587 29.2794 27.936 29.4965 28.8721 29.1095C29.8087 28.7225 30.4184 27.8083 30.416 26.7953C30.4152 26.1332 30.1518 25.4982 29.6831 25.0303L26.2535 21.6003C27.2096 21.167 28.3331 21.358 29.092 22.0832L36.1602 29.1514C36.6256 29.6205 36.8862 30.2554 36.8846 30.9164C36.8862 31.5774 36.6256 32.2119 36.1602 32.681L33.8041 35.0371L31.39 37.4431L29.6831 39.1581L24.9714 43.8698C24.6466 44.1926 24.1222 44.1926 23.7974 43.8698C23.4747 43.5454 23.4747 43.021 23.7974 42.6963L29.1339 37.3846C29.3713 37.1813 29.475 36.8618 29.4018 36.5578C29.3286 36.2537 29.0912 36.0163 28.7872 35.9431C28.4827 35.87 28.1636 35.9732 27.9599 36.211L22.6568 41.5056C22.3267 41.7885 21.8345 41.7694 21.5267 41.4621C21.2194 41.1544 21.2003 40.6621 21.4832 40.3317L26.7779 35.0371C26.9356 34.881 27.0242 34.668 27.0242 34.446C27.0242 34.2241 26.9356 34.0115 26.7779 33.855C26.4531 33.5322 25.9287 33.5322 25.6039 33.855L20.3007 39.1581C19.9764 39.4809 19.452 39.4809 19.1272 39.1581C18.9695 39.0016 18.8809 38.789 18.8809 38.5671C18.8809 38.3451 18.9695 38.1321 19.1272 37.976L24.4218 32.681C24.5795 32.5249 24.6681 32.3119 24.6681 32.09C24.6681 31.868 24.5795 31.6554 24.4218 31.4989C24.097 31.1761 23.5726 31.1761 23.2478 31.4989L17.9451 36.8021C17.6187 37.126 17.0911 37.1244 16.7671 36.798C16.4427 36.4716 16.4447 35.9439 16.7711 35.62L23.173 29.2262C23.4995 28.8998 23.4995 28.3705 23.173 28.0441C22.8466 27.7177 22.3174 27.7177 21.991 28.0441L15.5557 34.4627C14.5818 35.4379 14.5818 37.0175 15.5557 37.9927C15.9858 38.4317 16.565 38.6935 17.1789 38.7252C17.2532 39.9926 18.267 41.0028 19.5349 41.0727C19.6052 42.3438 20.6203 43.3584 21.891 43.4288C21.9149 44.0548 22.1735 44.6495 22.6153 45.0938C23.3657 45.8425 24.5072 46.0364 25.4624 45.5767L26.1449 46.2677C26.8461 46.9693 27.8965 47.1897 28.8209 46.8287C29.7449 46.4677 30.3676 45.5942 30.4075 44.6027C31.0347 44.5836 31.631 44.3243 32.0725 43.8783C32.505 43.4442 32.7627 42.8666 32.7968 42.2548C34.068 42.1849 35.0826 41.1699 35.1529 39.8987C36.1443 39.8593 37.0179 39.2362 37.3789 38.3122C37.7402 37.3878 37.5199 36.3378 36.8179 35.6366L36.2269 35.0537L37.4089 33.8716C38.187 33.0916 38.624 32.0347 38.6244 30.9327C38.6049 30.1087 38.341 29.3091 37.8667 28.6351L39.124 27.3783L39.715 27.9693C40.0398 28.2921 40.5642 28.2921 40.889 27.9693L49.6965 19.1361C50.0193 18.8118 50.0193 18.287 49.6965 17.9626C49.5404 17.8049 49.3274 17.7163 49.1055 17.7163C48.8835 17.7163 48.6709 17.8049 48.5144 17.9626ZM12.0176 23.8482L17.3207 18.5536L18.4943 19.7272L13.1997 25.0303L12.0176 23.8482ZM28.501 45.0438C28.1762 45.3665 27.6518 45.3665 27.3274 45.0438L26.7364 44.4527L27.9185 43.2788L28.501 43.8617C28.6587 44.0178 28.7473 44.2308 28.7473 44.4527C28.7473 44.6747 28.6587 44.8877 28.501 45.0438ZM30.857 42.6877C30.5323 43.0105 30.0079 43.0105 29.6831 42.6877L29.1339 42.0967L29.725 41.5056L30.3075 40.9227L30.8989 41.5056C31.0562 41.6621 31.1448 41.8747 31.1448 42.0967C31.1448 42.3186 31.0562 42.5316 30.8989 42.6877H30.857ZM33.2131 40.3317C32.8883 40.6544 32.3639 40.6544 32.0391 40.3317L31.4481 39.7406L32.622 38.5671L33.2131 39.1581C33.5359 39.4829 33.5359 40.0073 33.2131 40.3317ZM35.5691 37.976C35.4126 38.1333 35.2 38.2219 34.9781 38.2219C34.7562 38.2219 34.5431 38.1333 34.3871 37.976L33.8041 37.3846L34.9614 36.211L35.5525 36.8021C35.8797 37.122 35.8874 37.6468 35.5691 37.976ZM36.7427 27.3783L31.4481 22.0832L32.622 20.9097L37.9252 26.2043L36.7427 27.3783Z" fill="#FFBB01"/>
<path d="M15.8139 13.3201H34.129C34.5888 13.3201 34.9615 12.9473 34.9615 12.4876V0.832504C34.9615 0.372757 34.5888 0 34.129 0H15.8139C15.3542 0 14.9814 0.372757 14.9814 0.832504V12.4876C14.9814 12.9473 15.3542 13.3201 15.8139 13.3201ZM16.6465 9.99005C17.5659 9.99005 18.3115 10.7356 18.3115 11.6551H16.6465V9.99005ZM33.2965 11.6551H31.6315C31.6315 10.7356 32.377 9.99005 33.2965 9.99005V11.6551ZM33.2965 3.33002C32.377 3.33002 31.6315 2.5845 31.6315 1.66501H33.2965V3.33002ZM33.2965 4.99502V8.32504C31.4571 8.32504 29.9665 9.81607 29.9665 11.6551H19.9765C19.9765 9.81607 18.4854 8.32504 16.6465 8.32504V4.99502C18.4854 4.99502 19.9765 3.504 19.9765 1.66501H29.9665C29.9665 3.504 31.4571 4.99502 33.2965 4.99502ZM16.6465 1.66501H18.3115C18.3115 2.5845 17.5659 3.33002 16.6465 3.33002V1.66501Z" fill="#FFBB01"/>
<path d="M24.9713 9.99005C26.8102 9.99005 28.3013 8.49902 28.3013 6.66003C28.3013 4.82104 26.8102 3.33002 24.9713 3.33002C23.1319 3.33002 21.6412 4.82104 21.6412 6.66003C21.6412 8.49902 23.1319 9.99005 24.9713 9.99005ZM24.9713 4.99503C25.8907 4.99503 26.6363 5.74054 26.6363 6.66003C26.6363 7.57953 25.8907 8.32504 24.9713 8.32504C24.0518 8.32504 23.3062 7.57953 23.3062 6.66003C23.3062 5.74054 24.0518 4.99503 24.9713 4.99503Z" fill="#FFBB01"/>
<path d="M31.6313 6.66002C31.6313 7.11977 31.2586 7.49252 30.7988 7.49252C30.3391 7.49252 29.9663 7.11977 29.9663 6.66002C29.9663 6.20027 30.3391 5.82751 30.7988 5.82751C31.2586 5.82751 31.6313 6.20027 31.6313 6.66002Z" fill="#FFBB01"/>
<path d="M19.9763 6.66002C19.9763 7.11977 19.6035 7.49252 19.1438 7.49252C18.684 7.49252 18.3113 7.11977 18.3113 6.66002C18.3113 6.20027 18.684 5.82751 19.1438 5.82751C19.6035 5.82751 19.9763 6.20027 19.9763 6.66002Z" fill="#FFBB01"/>
<path d="M49.805 5.36978L46.475 0.374755C46.3202 0.144272 46.0612 0.00646973 45.784 0.00646973C45.5068 0.00646973 45.2474 0.144272 45.0929 0.374755L41.7629 5.36978C41.6719 5.50514 41.6227 5.66449 41.6215 5.82749V9.15751C41.6215 9.61726 41.9942 9.99001 42.454 9.99001C42.9137 9.99001 43.2865 9.61726 43.2865 9.15751V6.07708L45.784 2.33081L48.2815 6.07708V14.985C48.2815 15.4448 48.6543 15.8175 49.114 15.8175C49.5738 15.8175 49.9465 15.4448 49.9465 14.985V5.82749C49.9453 5.66449 49.8961 5.50514 49.805 5.36978Z" fill="#FFBB01"/>
<path d="M46.6166 11.655V6.66002C46.6166 6.20027 46.2438 5.82751 45.784 5.82751C45.3243 5.82751 44.9515 6.20027 44.9515 6.66002V11.655C44.9515 12.1148 45.3243 12.4875 45.784 12.4875C46.2438 12.4875 46.6166 12.1148 46.6166 11.655Z" fill="#FFBB01"/>
<path d="M0.828736 7.49256H1.66124V17.4826C1.66124 17.9424 2.034 18.3151 2.49374 18.3151C2.95349 18.3151 3.32625 17.9424 3.32625 17.4826V6.66006C3.32625 6.20031 2.95349 5.82755 2.49374 5.82755H2.44375L4.99126 2.26462L7.53877 5.82755H7.48877C7.02902 5.82755 6.65626 6.20031 6.65626 6.66006V8.32507C6.65626 8.78481 7.02902 9.15757 7.48877 9.15757C7.94852 9.15757 8.32127 8.78481 8.32127 8.32507V7.49256H9.15378C9.46475 7.49094 9.74889 7.31655 9.89075 7.03972C10.0326 6.76331 10.0082 6.43039 9.82815 6.17714L5.66563 0.349612C5.50873 0.133356 5.25832 0.00531006 4.99126 0.00531006C4.72419 0.00531006 4.47338 0.133356 4.31688 0.349612L0.154359 6.17714C-0.0261248 6.43039 -0.0501081 6.76331 0.0917591 7.03972C0.233626 7.31655 0.517767 7.49094 0.828736 7.49256Z" fill="#FFBB01"/>
<path d="M4.99121 11.6551V14.1526C4.99121 14.6123 5.36397 14.9851 5.82372 14.9851C6.28346 14.9851 6.65622 14.6123 6.65622 14.1526V11.6551C6.65622 11.1953 6.28346 10.8226 5.82372 10.8226C5.36397 10.8226 4.99121 11.1953 4.99121 11.6551Z" fill="#FFBB01"/>
</svg>
