<svg width="50" height="50" viewBox="0 0 50 50" fill="none" xmlns="http://www.w3.org/2000/svg">
<path d="M49.9035 11.8436C49.7314 11.2036 49.3116 10.6581 48.7371 10.3273C48.1623 9.99494 47.4788 9.90503 46.8376 10.0771C46.1973 10.2496 45.6517 10.6691 45.3209 11.2435L44.9043 11.9685C44.5085 11.7411 44.0028 11.8749 43.7713 12.2687L41.655 15.8761L40.93 15.4595C40.738 15.3484 40.5093 15.3183 40.2953 15.3761C40.0809 15.4343 39.8987 15.575 39.7884 15.7679C39.5626 16.1662 39.7002 16.6723 40.0968 16.9009L40.8218 17.3175L33.7397 29.5904L31.9899 34.2649L31.1567 35.8227C30.6689 36.6713 30.721 37.7262 31.2901 38.5224L29.4154 40.8218L28.8906 39.5057C28.6539 38.919 28.1059 38.5171 27.4757 38.4679C26.8451 38.4182 26.2409 38.7299 25.9159 39.2722L25.616 39.7803L25.3329 36.4475C25.2678 35.6591 24.6571 35.0253 23.872 34.9301C23.0864 34.8353 22.3427 35.306 22.0917 36.0562L20.042 42.205C19.8988 42.6399 20.1332 43.1086 20.5669 43.2551C20.6482 43.2929 20.7357 43.3157 20.8252 43.3214C21.1832 43.3226 21.5022 43.0944 21.6169 42.7551L23.658 36.6062L23.9497 39.9886C24.0099 40.7103 24.5286 41.3104 25.234 41.474C25.9395 41.6375 26.6693 41.3267 27.0408 40.7054L27.3491 40.1969L27.8658 41.5053C28.0851 42.0565 28.581 42.4499 29.1681 42.5374C29.7552 42.6249 30.3442 42.3934 30.7153 41.93L32.6567 39.4723C32.8715 39.5285 33.0928 39.5566 33.3149 39.5557C34.2079 39.5627 35.037 39.0924 35.4894 38.3222L36.3226 36.9309L39.4971 33.0733L46.6541 20.6503L47.3791 21.0669C47.5723 21.1775 47.7131 21.3602 47.7705 21.5754C47.8282 21.789 47.7981 22.0168 47.6875 22.2084L44.3547 27.9826C44.229 28.1722 44.1863 28.4049 44.2367 28.627C44.2872 28.8487 44.4259 29.0404 44.6212 29.1571C44.8132 29.2686 45.0419 29.2987 45.2558 29.2409C45.4702 29.1828 45.6525 29.042 45.7628 28.8491L49.0955 23.075C49.4279 22.5001 49.5178 21.8167 49.3453 21.1755C49.1728 20.5351 48.7534 19.9896 48.1789 19.6588L47.454 19.2422L49.5369 15.6344C49.7644 15.2386 49.6305 14.7333 49.2371 14.5014L49.6537 13.7764C49.995 13.1926 50.0853 12.4953 49.9035 11.8436ZM46.7623 12.0767C46.8726 11.8839 47.0557 11.7427 47.2709 11.6853C47.4849 11.6324 47.7111 11.6621 47.9039 11.7687C48.0972 11.879 48.2379 12.0621 48.2957 12.2769C48.3486 12.4909 48.3189 12.717 48.2123 12.9099L47.7957 13.6349L46.3458 12.8017L46.7623 12.0767ZM35.406 35.3397L34.9894 35.0981L33.7563 34.3812L34.9394 31.2153L37.5639 32.7315L35.406 35.3397ZM32.9065 37.7474C32.5546 37.5021 32.4463 37.0301 32.6567 36.6558L33.0733 35.9313L34.5228 36.7645L34.1062 37.4809C33.9895 37.6835 33.7934 37.8275 33.5651 37.8784C33.3369 37.9288 33.0981 37.8816 32.9065 37.7474ZM38.5138 31.3654L35.631 29.699L42.2966 18.1507L45.1794 19.8171L38.5138 31.3654ZM46.0126 18.3757L43.1297 16.7093L44.7961 13.8265L47.6789 15.4929L46.0126 18.3757Z" fill="#FFBB01"/>
<path d="M13.1476 40.3353L10.1985 43.2767L8.43203 41.5102C8.10697 41.1872 7.58216 41.1872 7.2571 41.5102C7.09925 41.6668 7.01056 41.8796 7.01056 42.1017C7.01056 42.3239 7.09925 42.537 7.2571 42.6933L9.02356 44.4597C9.33601 44.7697 9.7583 44.9435 10.1985 44.943C10.6411 44.9455 11.0671 44.7718 11.3816 44.4597L14.3225 41.5102C14.6057 41.1795 14.5866 40.6868 14.279 40.3792C13.971 40.0712 13.4784 40.0521 13.1476 40.3353Z" fill="#FFBB01"/>
<path d="M3.33282 42.5766C3.33282 46.4883 6.50367 49.6587 10.415 49.6587C14.3262 49.6587 17.4971 46.4883 17.4971 42.5766C17.4971 42.1165 17.124 41.7434 16.6639 41.7434C16.2038 41.7434 15.8307 42.1165 15.8307 42.5766C15.8307 45.5676 13.406 47.9923 10.415 47.9923C7.42392 47.9923 4.99921 45.5676 4.99921 42.5766C4.99921 39.5856 7.42392 37.1608 10.415 37.1608C11.5874 37.1576 12.7286 37.538 13.6643 38.2442C14.0325 38.5205 14.5549 38.4456 14.8307 38.0774C15.1069 37.7093 15.0325 37.1873 14.6643 36.9111C12.5183 35.3016 9.64685 35.0429 7.24777 36.2422C4.84827 37.442 3.33282 39.8944 3.33282 42.5766Z" fill="#FFBB01"/>
<path d="M29.9948 9.66547C30.455 9.66547 30.828 9.29281 30.828 8.83228C30.828 8.37215 30.455 7.99908 29.9948 7.99908H8.33185C7.87172 7.99908 7.49866 8.37215 7.49866 8.83228V12.165C7.49866 12.6256 7.87172 12.9982 8.33185 12.9982H29.9948C30.455 12.9982 30.828 12.6256 30.828 12.165C30.828 11.7049 30.455 11.3319 29.9948 11.3319H9.16504V9.66547H29.9948Z" fill="#FFBB01"/>
<path d="M10.8315 14.6647C10.3714 14.6647 9.99829 15.0377 9.99829 15.4979C9.99829 15.9584 10.3714 16.331 10.8315 16.331H27.4953C27.9554 16.331 28.3285 15.9584 28.3285 15.4979C28.3285 15.0377 27.9554 14.6647 27.4953 14.6647H10.8315Z" fill="#FFBB01"/>
<path d="M32.4945 20.4969H14.1643C13.7042 20.4969 13.3311 20.87 13.3311 21.3301C13.3311 21.7907 13.7042 22.1633 14.1643 22.1633H32.4945C32.9546 22.1633 33.3277 21.7907 33.3277 21.3301C33.3277 20.87 32.9546 20.4969 32.4945 20.4969Z" fill="#FFBB01"/>
<path d="M24.1625 26.3293C24.1625 25.8692 23.7895 25.4962 23.3294 25.4962H6.66553C6.2054 25.4962 5.83234 25.8692 5.83234 26.3293C5.83234 26.7899 6.2054 27.1625 6.66553 27.1625H23.3294C23.7895 27.1625 24.1625 26.7899 24.1625 26.3293Z" fill="#FFBB01"/>
<path d="M32.4944 22.4962H26.6621C26.202 22.4962 25.8289 22.8692 25.8289 23.3293C25.8289 23.7899 26.202 24.1625 26.6621 24.1625H32.4944C32.9546 24.1625 33.3276 23.7899 33.3276 23.3293C33.3276 22.8692 32.9546 22.4962 32.4944 22.4962Z" fill="#FFBB01"/>
<path d="M14.9974 31.3285C15.4576 31.3285 15.8306 30.9558 15.8306 30.4953C15.8306 30.0352 15.4576 29.6621 14.9974 29.6621H6.66553C6.2054 29.6621 5.83234 30.0352 5.83234 30.4953C5.83234 30.9558 6.2054 31.3285 6.66553 31.3285H14.9974Z" fill="#FFBB01"/>
<path d="M18.3301 31.3285H24.1625C24.6226 31.3285 24.9957 30.9558 24.9957 30.4953C24.9957 30.0352 24.6226 29.6621 24.1625 29.6621H18.3301C17.87 29.6621 17.4969 30.0352 17.4969 30.4953C17.4969 30.9558 17.87 31.3285 18.3301 31.3285Z" fill="#FFBB01"/>
<path d="M37.4936 38.3268C37.0335 38.3268 36.6604 38.6999 36.6604 39.16V47.4919C36.6604 47.9524 36.2874 48.3251 35.8272 48.3251H2.49957C2.03945 48.3251 1.66638 47.9524 1.66638 47.4919V2.49957C1.66638 2.03945 2.03945 1.66638 2.49957 1.66638H35.8272C36.2874 1.66638 36.6604 2.03945 36.6604 2.49957V18.1471C36.6604 18.6073 37.0335 18.9803 37.4936 18.9803C37.9537 18.9803 38.3268 18.6073 38.3268 18.1471V2.49957C38.3268 1.11919 37.2076 0 35.8272 0H2.49957C1.11919 0 0 1.11919 0 2.49957V47.4919C0 48.8727 1.11919 49.9915 2.49957 49.9915H35.8272C37.2076 49.9915 38.3268 48.8727 38.3268 47.4919V39.16C38.3268 38.6999 37.9537 38.3268 37.4936 38.3268Z" fill="#FFBB01"/>
</svg>
