<svg width="16" height="18" viewBox="0 0 16 18" fill="none" xmlns="http://www.w3.org/2000/svg">
<path d="M7.514 9.56386C7.53226 9.56371 7.55052 9.56356 7.57243 9.56338C7.57973 9.56332 7.58704 9.56326 7.59434 9.5632C7.6053 9.56311 7.6199 9.56299 7.63086 9.5629C8.70065 9.53584 9.56301 9.15259 10.1961 8.42795C11.589 6.83156 11.3329 4.11662 11.3052 3.85757C11.1979 1.91197 10.2701 0.988357 9.50693 0.560055C8.93824 0.239711 8.27585 0.0698673 7.53809 0.0613287L7.51252 0.061539C7.50887 0.061569 7.50157 0.0616291 7.49792 0.0616591L7.47601 0.0618394C7.07067 0.0651738 6.27514 0.137453 5.51552 0.578282C4.75224 1.01914 3.82506 1.95801 3.7499 3.91972C3.72648 4.1792 3.51512 6.89798 4.93405 8.47124C5.57537 9.1854 6.44391 9.5544 7.514 9.56386ZM4.72566 4.00299C4.72557 3.99203 4.72913 3.98105 4.72907 3.97375C4.82803 1.3545 6.68443 1.05803 7.4805 1.05148L7.4951 1.05136C7.50241 1.0513 7.51336 1.05121 7.52432 1.05112C8.51045 1.06492 10.1899 1.45281 10.3235 3.92772C10.3235 3.93868 10.3236 3.94963 10.3273 3.95691C10.3312 3.98244 10.6072 6.46348 9.45677 7.78034C9.00092 8.30266 8.38954 8.56333 7.58258 8.57727C7.57527 8.57733 7.57162 8.57736 7.56432 8.57742C7.55702 8.57748 7.55336 8.57751 7.54606 8.57757C6.74263 8.57688 6.12339 8.32634 5.66267 7.81155C4.49439 6.52107 4.72218 4.02493 4.72566 4.00299Z" fill="#949494"/>
<path d="M15.1137 14.0078C15.1137 14.0041 15.1136 14.0005 15.1136 13.9968C15.1134 13.9676 15.1095 13.9384 15.1092 13.9056C15.0814 13.1827 15.02 11.4924 13.4307 10.9649C13.4197 10.9614 13.4051 10.9579 13.3941 10.9543C11.7437 10.5479 10.3665 9.60972 10.3518 9.59889C10.1278 9.4437 9.8215 9.501 9.66631 9.72504C9.51112 9.94909 9.56842 10.2554 9.79246 10.4106C9.8549 10.4539 11.3166 11.4534 13.139 11.9059C13.9923 12.202 14.0947 13.1105 14.1272 13.9428C14.1274 13.9757 14.1277 14.0049 14.1316 14.0341C14.1379 14.3627 14.1202 14.8705 14.0642 15.1631C13.4753 15.5039 11.1661 16.6842 7.63854 16.7133C4.12562 16.7422 1.78261 15.5965 1.18462 15.2654C1.12379 14.9738 1.09406 14.4664 1.09866 14.1377C1.09842 14.1085 1.10183 14.0792 1.10156 14.0463C1.12027 13.2136 1.20773 12.3035 2.05608 11.9934C3.87078 11.511 5.3158 10.4839 5.37754 10.4432C5.59901 10.2844 5.65126 9.97719 5.4924 9.75573C5.33355 9.53426 5.02636 9.48201 4.80489 9.64087C4.79038 9.65194 3.43611 10.6126 1.78535 11.0461C1.77077 11.0499 1.75985 11.0537 1.74892 11.0574C0.168568 11.6145 0.135004 13.3057 0.119012 14.0252C0.119283 14.0581 0.119523 14.0873 0.116111 14.1165C0.116142 14.1202 0.116172 14.1238 0.116202 14.1275C0.114112 14.3174 0.118481 15.2924 0.316046 15.7802C0.353344 15.8748 0.419735 15.9546 0.507826 16.0087C0.617978 16.0808 3.2573 17.7317 7.65028 17.6955C12.0433 17.6594 14.655 15.9617 14.764 15.8914C14.8475 15.8359 14.9163 15.755 14.952 15.6598C15.1306 15.1726 15.1189 14.1976 15.1137 14.0078Z" fill="#949494"/>
</svg>
